<?xml version="1.0"?>
<svg xmlns:rdf="http://www.w3.org/1999/02/22-rdf-syntax-ns#" xmlns="http://www.w3.org/2000/svg" xmlns:cc="http://web.resource.org/cc/" xmlns:xlink="http://www.w3.org/1999/xlink" xmlns:dc="http://purl.org/dc/elements/1.1/" xmlns:svg="http://www.w3.org/2000/svg" id="Layer_1" version="1.1" xml:space="preserve" viewBox="0 0 360 360" enable-background="new 0 0 360 360" y="0px" x="0px">
	<path d="m122.4 13.381c0.992-0.304 2.015-0.471 3.032-0.664-0.26 0.657-0.62 1.252-1.079 1.779-3.807 4.129-7.905 8.066-10.862 12.877-3.311 5.418-6.207 11.147-7.961 17.273-4.867 15.431-5.785 31.792-5.487 47.869-10.273-0.136-20.386 5.084-26.431 13.361-5.574 7.31-7.57 16.981-5.958 25.971-7.229 2.368-14.334 5.09-21.31 8.122-12.543 5.388-24.993 11.947-34.454 21.997-2.505 2.467-4.7 5.263-6.312 8.4 0.812-21.445 5.859-42.686 14.496-62.314 8.992-20.542 22.099-39.216 38.119-54.872 18.187-17.711 40.259-31.406 64.21-39.807z" fill="#fff"/>
	<path d="m217.73 19.346c5.555-2.642 11.178-5.239 17.223-6.535 1.023 0.13 2.029 0.421 3.002 0.756 28.558 9.982 54.354 27.633 74.146 50.511 15.556 17.887 27.379 39.003 34.534 61.608 12.964 40.807 10.342 86.488-7.764 125.34-0.434-2.906-1.104-5.771-1.686-8.654-1.402-6.069-1.843-12.486-4.947-18.022-4.267-7.849-7.225-16.56-13.156-23.387-6.411-6.813-11.633-14.86-19.346-20.36-5.449-3.806-10.693-7.886-16.113-11.736-7.489-5.165-15.885-8.761-24.074-12.629-4.203-2.021-8.266-4.352-12.637-5.983-7.582-2.827-15.449-4.737-23.17-7.099-7.172-2.102-14.234-4.668-21.617-5.971-12.022-2.139-24.051-4.216-36.054-6.441-10.751-2.114-21.731-2.362-32.619-3.211 0.645-11.11-4.638-22.289-13.696-28.774 5.964-6.652 12.121-13.125 18.408-19.479 4.594-4.514 9.009-9.213 13.907-13.411 7.88-6.795 15.792-13.559 24.025-19.926 5.848-4.526 11.682-9.107 17.948-13.051 7.72-4.83 15.29-9.983 23.7-13.553z" fill="#fff"/>
	<path d="m83.785 154.43c5.847 3.379 12.779 4.873 19.506 4.253 1.723 8.097 3.751 16.125 5.698 24.173 1.221 5.172 3.013 10.188 4.768 15.195 2.313 6.361 4.377 12.805 6.733 19.146 3.038 8.244 6.932 16.131 10.534 24.129 2.375 5.091 4.253 10.416 7.161 15.246 5.45 9.412 10.775 18.896 16.417 28.196 4.563 7.13 9.963 13.671 14.763 20.633 5.84 8.668 13.375 15.972 20.348 23.69 6.789 8.177 15.983 13.745 23.927 20.67-24.49 4.86-50.01 4.277-74.283-1.507-29.531-7.006-57.096-22.01-79.131-42.866-0.446-0.477-1.011-0.911-1.203-1.544-0.998-4.396-2.195-8.741-3.23-13.131-2.418-8.487-1.866-17.396-1.946-26.12-0.112-4.755 0.415-9.498 0.961-14.216 0.762-5.593 1.035-11.267 2.244-16.796 1.711-8.252 3.596-16.479 5.71-24.639 4.005-12.604 8.085-25.209 13.23-37.404 2.272-5.83 4.728-11.61 7.79-17.1z" fill="#fff"/>
	<g id="_x23_000000ff">
		<path d="m165.84 1.638c34.396-2.914 69.633 4.197 100.03 20.608 23.199 12.424 43.611 30.001 59.348 51.093 15.6 20.776 26.598 44.999 31.898 70.437 4.402 20.937 5.09 42.643 1.902 63.802-3.646 25.018-12.777 49.184-26.418 70.449-13.732 21.445-32.072 39.928-53.412 53.82-22.773 14.874-48.957 24.489-75.957 27.77-27.906 3.504-56.613 0.315-83.093-9.17-21.998-7.903-42.408-20.168-59.744-35.854-23.393-21.1-41.199-48.402-50.772-78.43-13.726-42.338-11.01-89.796 7.72-130.19 9.418-20.596 22.829-39.35 39.197-54.986 29.359-28.327 68.629-46.119 109.3-49.356m-40.28 10.813l-0.125 0.267c-1.017 0.192-2.04 0.359-3.032 0.664-23.957 8.4-46.029 22.096-64.214 39.809-16.026 15.655-29.132 34.329-38.116 54.859-8.637 19.628-13.684 40.869-14.496 62.314-0.571 15.481 0.639 31.037 4.048 46.169 6.659 29.902 21.403 57.981 42.259 80.42 2.362 2.313 4.272 5.134 7.13 6.894 0.192 0.633 0.756 1.067 1.203 1.544 22.035 20.856 49.6 35.86 79.131 42.866 24.273 5.784 49.792 6.367 74.283 1.507 14.482-2.653 28.532-7.459 41.824-13.752 36.506-17.508 66.813-48.005 83.402-84.986 18.104-38.854 20.728-84.536 7.764-125.34-7.155-22.604-18.979-43.721-34.534-61.608-19.791-22.877-45.589-40.529-74.146-50.511-0.974-0.334-1.979-0.626-3.002-0.756l0.554-0.18c-15.042-4.879-30.696-7.948-46.501-8.692-4.371 0.161-8.736-0.738-13.107-0.1-17.06 0.261-34.12 3.175-50.32 8.618z"/>
	</g>
	<g id="_x23_ed1c24ff">
		<path d="m125.56 12.451c16.194-5.443 33.263-8.357 50.332-8.612 4.371-0.638 8.736 0.261 13.107 0.1 15.805 0.744 31.459 3.813 46.501 8.692l-0.554 0.18c-6.045 1.295-11.668 3.893-17.223 6.535-8.402 3.571-15.973 8.723-23.686 13.546-6.268 3.943-12.102 8.525-17.948 13.051-8.234 6.367-16.145 13.131-24.025 19.926-4.898 4.197-9.313 8.897-13.907 13.411-6.287 6.354-12.443 12.827-18.408 19.479-5.692-4.092-12.679-6.367-19.704-6.243-0.297-16.076 0.62-32.438 5.487-47.869 1.754-6.126 4.65-11.854 7.961-17.273 2.958-4.811 7.056-8.748 10.862-12.877 0.459-0.527 0.818-1.122 1.079-1.779l0.13-0.267z" fill="#ED1C24"/>
	</g>
	<g id="_x23_fff200ff">
		<path d="m73.617 105.88c6.045-8.277 16.157-13.497 26.431-13.361 7.025-0.124 14.012 2.151 19.704 6.243 9.058 6.485 14.34 17.664 13.696 28.774-0.471 7.942-3.85 15.636-9.424 21.309-5.457 5.598-12.934 9.194-20.733 9.845-6.727 0.62-13.659-0.875-19.506-4.253-8.333-4.712-14.353-13.193-16.126-22.586-1.621-9 0.376-18.67 5.949-25.98z" fill="#FFF200"/>
	</g>
	<g id="_x23_0083caff">
		<path d="m133.45 127.53c10.887 0.849 21.867 1.097 32.619 3.211 12.002 2.226 24.031 4.303 36.054 6.441 7.383 1.302 14.444 3.869 21.618 5.971 7.72 2.362 15.588 4.271 23.17 7.099 4.371 1.631 8.433 3.962 12.636 5.983 8.19 3.869 16.585 7.465 24.075 12.629 5.419 3.85 10.664 7.93 16.113 11.736 7.713 5.5 12.934 13.547 19.344 20.36 5.934 6.826 8.892 15.537 13.156 23.387 3.105 5.536 3.547 11.953 4.948 18.021 0.582 2.885 1.253 5.748 1.687 8.656-16.592 36.981-46.897 67.479-83.403 84.986-13.292 6.293-27.342 11.099-41.824 13.752-7.942-6.925-17.138-12.493-23.927-20.67-6.975-7.72-14.508-15.022-20.348-23.69-4.799-6.962-10.199-13.503-14.763-20.633-5.642-9.3-10.968-18.784-16.417-28.196-2.908-4.83-4.787-10.155-7.161-15.246-3.602-7.998-7.496-15.885-10.534-24.129-2.356-6.342-4.421-12.785-6.733-19.146-1.754-5.009-3.546-10.023-4.768-15.195-1.947-8.048-3.975-16.077-5.698-24.173 7.799-0.651 15.276-4.247 20.733-9.845 5.57-5.67 8.95-13.36 9.42-21.31z" fill="#0083CA"/>
	</g>
	<g id="_x23_39b54aff">
		<path d="m46.35 139.97c6.975-3.032 14.08-5.754 21.31-8.122 1.773 9.393 7.793 17.874 16.126 22.586-3.063 5.481-5.518 11.271-7.793 17.112-5.146 12.194-9.226 24.799-13.23 37.403-2.114 8.158-3.999 16.387-5.71 24.639-1.209 5.529-1.482 11.203-2.244 16.796-0.546 4.718-1.073 9.461-0.961 14.216 0.081 8.725-0.472 17.633 1.946 26.12 1.036 4.39 2.232 8.735 3.23 13.131-2.858-1.76-4.768-4.581-7.13-6.894-20.856-22.438-35.6-50.518-42.259-80.42-3.41-15.133-4.619-30.688-4.048-46.169 1.612-3.137 3.807-5.933 6.312-8.4 9.458-10.06 21.908-16.62 34.451-22.01z" fill="#39B54A"/>
	</g>
<metadata><rdf:RDF><cc:Work><dc:format>image/svg+xml</dc:format><dc:type rdf:resource="http://purl.org/dc/dcmitype/StillImage"/><cc:license rdf:resource="http://creativecommons.org/licenses/publicdomain/"/><dc:publisher><cc:Agent rdf:about="http://openclipart.org/"><dc:title>Openclipart</dc:title></cc:Agent></dc:publisher><dc:title>Simple Beach Ball</dc:title><dc:date>2012-10-26T20:37:45</dc:date><dc:description>abstract, beach, clip art, clipart, free form, freeform, ocean, retro, sand, shape, shapes, spring, summer, </dc:description><dc:source>http://openclipart.org/detail/172888/simple-beach-ball-by-tikigiki-172888</dc:source><dc:creator><cc:Agent><dc:title>TikiGiki</dc:title></cc:Agent></dc:creator><dc:subject><rdf:Bag><rdf:li>abstract</rdf:li><rdf:li>beach</rdf:li><rdf:li>clip art</rdf:li><rdf:li>clipart</rdf:li><rdf:li>free form</rdf:li><rdf:li>freeform</rdf:li><rdf:li>ocean</rdf:li><rdf:li>retro</rdf:li><rdf:li>sand</rdf:li><rdf:li>shape</rdf:li><rdf:li>shapes</rdf:li><rdf:li>spring</rdf:li><rdf:li>summer</rdf:li></rdf:Bag></dc:subject></cc:Work><cc:License rdf:about="http://creativecommons.org/licenses/publicdomain/"><cc:permits rdf:resource="http://creativecommons.org/ns#Reproduction"/><cc:permits rdf:resource="http://creativecommons.org/ns#Distribution"/><cc:permits rdf:resource="http://creativecommons.org/ns#DerivativeWorks"/></cc:License></rdf:RDF></metadata></svg>
